<svg width="32" height="32" xmlns="http://www.w3.org/2000/svg" viewBox="0 0 32 32"><title>devices_other</title><g fill="none" class="nc-icon-wrapper"><path d="M3.99 7.98h23.94v-2.66h-23.94c-1.46 0-2.66 1.2-2.66 2.66v15.96c0 1.46 1.2 2.66 2.66 2.66h5.32v-2.66h-5.32v-15.96z m13.3 7.98h-5.32v2.37c-0.81 0.73-1.33 1.77-1.33 2.95 0 1.18 0.52 2.22 1.33 2.95v2.37h5.32v-2.37c0.81-0.73 1.33-1.78 1.33-2.95 0-1.17-0.52-2.22-1.33-2.95v-2.37z m-2.66 7.32c-1.1 0-2-0.89-2-2s0.89-2 2-2 2 0.89 2 2-0.89 2-2 2z m14.63-12.64h-7.98c-0.67 0-1.33 0.67-1.33 1.33v13.3c0 0.67 0.67 1.33 1.33 1.33h7.98c0.67 0 1.33-0.67 1.33-1.33v-13.3c0-0.67-0.67-1.33-1.33-1.33z m-1.33 13.3h-5.32v-10.64h5.32v10.64z" fill="#000000"></path></g></svg>