<svg width="123" height="40" viewBox="0 0 123 40" fill="none" xmlns="http://www.w3.org/2000/svg">
<path d="M2.112 33V31.4H3.328C4.608 31.4 5.61067 31.016 6.336 30.248C7.06133 29.4587 7.424 28.3067 7.424 26.792V9.16H9.024V26.888C9.024 28.1467 8.78933 29.2347 8.32 30.152C7.85067 31.0693 7.18933 31.7733 6.336 32.264C5.48267 32.7547 4.48 33 3.328 33H2.112ZM14.2475 33V31.2H15.3475V33H14.2475ZM21.8655 33L23.9455 18.1H24.9455L22.9855 32.1H29.7855L29.6655 33H21.8655ZM30.9891 33L38.5891 18.1H39.5491L42.9891 33H41.9091L41.0291 29.06H34.1491L32.1491 33H30.9891ZM34.5891 28.16H40.8291L38.7491 18.94L39.2291 19L34.5891 28.16ZM47.8986 33L44.3586 18.1H45.4186L48.6786 32.08H48.2386L55.3986 18.1H56.5586L48.8586 33H47.8986ZM54.1531 33L61.7531 18.1H62.7131L66.1531 33H65.0731L64.1931 29.06H57.3131L55.3131 33H54.1531ZM57.7531 28.16H63.9931L61.9131 18.94L62.3931 19L57.7531 28.16ZM74.6128 33.24C73.6528 33.24 72.7661 33.0733 71.9528 32.74C71.1528 32.3933 70.4528 31.9067 69.8528 31.28C69.2661 30.6533 68.8061 29.9067 68.4728 29.04C68.1528 28.1733 67.9928 27.2133 67.9928 26.16C67.9928 25.0133 68.1795 23.94 68.5528 22.94C68.9395 21.9267 69.4728 21.04 70.1528 20.28C70.8461 19.52 71.6595 18.9267 72.5928 18.5C73.5261 18.0733 74.5461 17.86 75.6528 17.86C76.6928 17.86 77.6061 18.04 78.3928 18.4C79.1795 18.76 79.8261 19.22 80.3328 19.78C80.8528 20.3267 81.2128 20.8933 81.4128 21.48L80.4528 21.9C80.0795 20.9533 79.4728 20.2067 78.6328 19.66C77.8061 19.1 76.8061 18.82 75.6328 18.82C74.6595 18.82 73.7661 19.0133 72.9528 19.4C72.1395 19.7733 71.4328 20.2933 70.8328 20.96C70.2461 21.6267 69.7928 22.4067 69.4728 23.3C69.1528 24.18 68.9928 25.1333 68.9928 26.16C68.9928 27.4533 69.2461 28.56 69.7528 29.48C70.2595 30.3867 70.9395 31.08 71.7928 31.56C72.6461 32.04 73.5995 32.28 74.6528 32.28C75.7595 32.28 76.7528 32.0333 77.6328 31.54C78.5128 31.0467 79.2261 30.3733 79.7728 29.52C80.3195 28.6667 80.6461 27.7 80.7528 26.62L80.8128 26.02L81.1928 26.54H75.0928L75.1528 25.64H81.8328L81.7528 26.62C81.6728 27.5133 81.4461 28.36 81.0728 29.16C80.7128 29.96 80.2195 30.6667 79.5928 31.28C78.9795 31.8933 78.2528 32.3733 77.4128 32.72C76.5728 33.0667 75.6395 33.24 74.6128 33.24ZM84.2092 33L86.2892 18.1H87.0892L94.4892 31.44H94.2292L96.0892 18.1H97.0892L95.0092 33H94.2092L86.7692 19.58H87.0892L85.2092 33H84.2092ZM98.9944 33L101.074 18.1H102.074L99.9944 33H98.9944ZM103.975 33L106.055 18.1H106.855L114.255 31.44H113.995L115.855 18.1H116.855L114.775 33H113.975L106.535 19.58H106.855L104.975 33H103.975ZM118.76 33L120.84 18.1H121.84L119.76 33H118.76Z" fill="black"/>
</svg>
