<svg width="50" height="19" viewBox="0 0 50 19" fill="none" xmlns="http://www.w3.org/2000/svg">
<path d="M2.04 18.74C1.8 18.74 1.5 18.7267 1.14 18.7C0.78 18.6733 0.42 18.62 0.06 18.54V15.72C0.313333 15.7733 0.566667 15.8067 0.82 15.82C1.07333 15.8467 1.27333 15.86 1.42 15.86C2.02 15.86 2.43333 15.6933 2.66 15.36C2.9 15.0267 3.02 14.4867 3.02 13.74V0.899999H6.72V13.74C6.72 14.86 6.56 15.7933 6.24 16.54C5.93333 17.2867 5.44 17.84 4.76 18.2C4.08 18.56 3.17333 18.74 2.04 18.74ZM12.8673 15.22C11.574 15.22 10.614 14.8667 9.98734 14.16C9.37401 13.44 9.06734 12.3533 9.06734 10.9V4.84H12.6273V10.92C12.6273 11.4533 12.734 11.8533 12.9473 12.12C13.174 12.3733 13.514 12.5 13.9673 12.5C14.474 12.5 14.8873 12.32 15.2073 11.96C15.5407 11.5867 15.7073 11.1 15.7073 10.5V4.84H19.2673V15H15.8073V13.18H16.1073C15.7873 13.8333 15.354 14.34 14.8073 14.7C14.2607 15.0467 13.614 15.22 12.8673 15.22ZM21.4906 15V0.279999H25.0506V15H21.4906ZM27.2523 15V4.84H30.8123V15H27.2523ZM27.1723 3.4V0.2H30.9123V3.4H27.1723ZM37.0141 15.22C36.1341 15.22 35.3607 15.0133 34.6941 14.6C34.0274 14.1733 33.5007 13.56 33.1141 12.76C32.7407 11.96 32.5541 11.0133 32.5541 9.92C32.5541 8.81333 32.7407 7.86667 33.1141 7.08C33.5007 6.28 34.0274 5.67333 34.6941 5.26C35.3607 4.83333 36.1341 4.62 37.0141 4.62C37.8007 4.62 38.5074 4.80667 39.1341 5.18C39.7741 5.55333 40.1941 6.04 40.3941 6.64H40.1941L40.4141 4.84H43.8341C43.7941 5.29333 43.7541 5.75333 43.7141 6.22C43.6874 6.68667 43.6741 7.14667 43.6741 7.6V15H40.1541L40.1141 13.28H40.3541C40.1541 13.8667 39.7341 14.34 39.0941 14.7C38.4674 15.0467 37.7741 15.22 37.0141 15.22ZM38.1541 12.58C38.7541 12.58 39.2407 12.3733 39.6141 11.96C39.9874 11.5333 40.1741 10.8533 40.1741 9.92C40.1741 8.98667 39.9874 8.31333 39.6141 7.9C39.2407 7.47333 38.7541 7.26 38.1541 7.26C37.5541 7.26 37.0674 7.47333 36.6941 7.9C36.3207 8.31333 36.1341 8.98667 36.1341 9.92C36.1341 10.8533 36.3141 11.5333 36.6741 11.96C37.0474 12.3733 37.5407 12.58 38.1541 12.58ZM45.6452 15V11.36H49.3452V15H45.6452Z" fill="black"/>
</svg>
